<svg width="148" height="35" viewBox="0 0 148 35" fill="none" xmlns="http://www.w3.org/2000/svg">
<path d="M69.0153 2.43118H57.1524C56.2746 2.43118 55.5724 2.68867 55.0512 3.20086C54.5273 3.71304 54.2682 4.42394 54.2682 5.33076V13.0947V15.205V21.8242C54.2682 22.7534 54.4883 23.4111 54.9258 23.7917C55.3661 24.1724 56.1185 24.3627 57.1886 24.3627C57.6874 24.3627 58.1751 24.3319 58.6488 24.2731C59.1226 24.2144 59.4681 24.1472 59.6827 24.0772V16.0278H66.4515C67.0451 16.0278 67.5133 15.8431 67.8588 15.4737C68.2016 15.1042 68.3743 14.5389 68.3743 13.7748C68.3743 13.3466 68.3158 12.9463 68.196 12.5769C68.0762 12.2074 67.948 11.9024 67.8031 11.6645H59.6465V6.79734H67.661C68.2545 6.79734 68.7227 6.61261 69.0682 6.24317C69.411 5.87373 69.5838 5.30837 69.5838 4.54429C69.5838 4.11607 69.5252 3.71024 69.4054 3.3268C69.2884 2.94617 69.1574 2.64669 69.0153 2.43118Z" fill="white"/>
<path d="M77.4059 1.03737C76.9406 0.679124 76.1993 0.5 75.1794 0.5C74.6806 0.5 74.218 0.536385 73.7888 0.606355C73.3597 0.676325 73.0281 0.749095 72.7912 0.821864V14.6676V17.4216V21.8941C72.7912 22.8234 73.0281 23.4671 73.5046 23.8253C73.9783 24.1836 74.7168 24.3627 75.7144 24.3627C76.2132 24.3627 76.6758 24.3319 77.105 24.2731C77.5313 24.2144 77.8657 24.1472 78.1026 24.0772V17.5308V14.7768V3.00494C78.0998 2.05054 77.8685 1.39562 77.4059 1.03737Z" fill="white"/>
<path d="M95.1264 7.95885C93.6523 6.92049 91.6821 6.40271 89.2131 6.40271C88.3576 6.40271 87.4742 6.46988 86.5602 6.59863C85.6461 6.73017 84.8436 6.93728 84.1553 7.22556C83.0629 7.67897 82.5167 8.40666 82.5167 9.40864C82.5167 9.83686 82.617 10.2483 82.8205 10.6429C83.0211 11.0375 83.2663 11.3286 83.5506 11.5189C84.2389 11.2335 85.0164 10.9816 85.883 10.7689C86.7497 10.5534 87.6358 10.447 88.5359 10.447C89.7008 10.447 90.5953 10.6261 91.2251 10.9844C91.8549 11.3426 92.1698 11.9276 92.1698 12.7364V13.1646L87.4324 13.6656C85.4622 13.856 83.9769 14.3877 82.9793 15.2582C81.9817 16.1286 81.4828 17.3741 81.4828 18.9974C81.4828 20.881 82.2018 22.3 83.637 23.2544C85.0749 24.2088 87.0033 24.6846 89.4249 24.6846C90.7792 24.6846 91.983 24.5586 93.0392 24.3095C94.0953 24.0576 94.9815 23.719 95.6921 23.2908C96.1659 23.0277 96.5588 22.7114 96.8681 22.342C97.1774 21.9725 97.3307 21.4883 97.3307 20.8922V12.7728C97.3363 10.6009 96.6006 8.99721 95.1264 7.95885ZM92.206 20.1785C91.9691 20.3212 91.5818 20.4472 91.0495 20.5535C90.5145 20.6599 89.9739 20.7159 89.4277 20.7159C88.43 20.7159 87.7055 20.5423 87.2541 20.1981C86.8026 19.8538 86.5769 19.392 86.5769 18.8211C86.5769 18.2501 86.8138 17.8191 87.2903 17.5336C87.764 17.2481 88.405 17.0802 89.2131 17.0326L92.206 16.7471V20.1785Z" fill="white"/>
<path d="M123.626 7.04642C122.559 6.6182 121.405 6.40269 120.17 6.40269C118.721 6.40269 117.498 6.6238 116.5 7.06601C115.809 7.37108 115.174 7.72094 114.589 8.11277C113.973 7.60898 113.282 7.21715 112.513 6.94007C111.515 6.58182 110.448 6.40269 109.308 6.40269C108.074 6.40269 106.886 6.57062 105.747 6.90368C104.607 7.23954 103.645 7.67895 102.862 8.22752C102.386 8.53819 102.026 8.88804 101.776 9.28268C101.525 9.67731 101.402 10.1727 101.402 10.7688V14.704V16.3497V21.8941C101.402 22.8233 101.634 23.4671 102.096 23.8253C102.559 24.1836 103.289 24.3627 104.286 24.3627C104.785 24.3627 105.248 24.3319 105.677 24.2731C106.103 24.2144 106.438 24.1472 106.675 24.0772V16.3497V14.704V11.3062C106.959 11.1411 107.31 10.9788 107.725 10.822C108.14 10.6681 108.609 10.5897 109.132 10.5897C109.846 10.5897 110.439 10.78 110.913 11.1635C111.387 11.5441 111.627 12.1431 111.627 12.9519V14.704V16.3497V21.8941C111.627 22.8233 111.858 23.4671 112.32 23.8253C112.783 24.1836 113.524 24.3627 114.547 24.3627C115.046 24.3627 115.508 24.3319 115.938 24.2731C116.364 24.2144 116.698 24.1472 116.935 24.0772V16.3497V14.704V12.2718C116.935 12.0255 116.913 11.7792 116.868 11.5329C117.166 11.309 117.504 11.1075 117.88 10.9312C118.368 10.7045 118.883 10.5925 119.429 10.5925C120.165 10.5925 120.758 10.7828 121.21 11.1663C121.661 11.5469 121.887 12.1459 121.887 12.9547V14.7068V16.3525V21.8969C121.887 22.8261 122.118 23.4699 122.581 23.8281C123.044 24.1864 123.785 24.3655 124.808 24.3655C125.306 24.3655 125.769 24.3347 126.198 24.2759C126.624 24.2172 126.945 24.15 127.159 24.08V16.3497V14.704V12.8064C127.159 11.2558 126.839 10.016 126.198 9.08676C125.549 8.15755 124.693 7.47744 123.626 7.04642Z" fill="white"/>
<path d="M146.78 15.6332C147.184 15.2526 147.385 14.69 147.385 13.9511C147.385 12.4733 147.039 11.1719 146.351 10.0524C145.663 8.93284 144.707 8.04282 143.484 7.38789C142.26 6.73297 140.831 6.40271 139.192 6.40271C138.075 6.40271 137.002 6.58183 135.968 6.94008C134.934 7.29833 134.009 7.8413 133.19 8.56899C132.37 9.29669 131.716 10.2203 131.231 11.3426C130.743 12.4649 130.501 13.7888 130.501 15.3141C130.501 17.3881 130.916 19.1177 131.746 20.5031C132.577 21.8858 133.722 22.9241 135.185 23.6154C136.648 24.3067 138.289 24.6538 140.12 24.6538C141.38 24.6538 142.5 24.5334 143.486 24.2955C144.473 24.0576 145.245 23.6994 145.802 23.2236C146.36 22.7478 146.638 22.1516 146.638 21.4352C146.638 21.0069 146.524 20.6011 146.301 20.2177C146.075 19.837 145.785 19.5376 145.429 19.322C144.883 19.6327 144.169 19.9294 143.291 20.2177C142.414 20.5031 141.474 20.6459 140.477 20.6459C139.242 20.6459 138.172 20.366 137.272 19.8062C136.55 19.3584 136.054 18.6671 135.773 17.7407L145.108 16.3553C145.819 16.2545 146.376 16.0166 146.78 15.6332ZM135.441 14.1582C135.542 13.0023 135.912 12.0899 136.556 11.4322C137.269 10.7045 138.158 10.3406 139.228 10.3406C140.248 10.3406 141.02 10.6261 141.544 11.1999C142.065 11.7708 142.352 12.3922 142.4 13.0611L135.441 14.1582Z" fill="white"/>
<path d="M6.91419 34.5L0.38501 23.9093L13.3654 23.8673L6.91419 34.5Z" fill="#B4163C"/>
<path d="M45.5487 13.2794L39.0975 2.64668H0.38501L6.83617 13.2794L0.38501 23.9121H39.2062L45.5487 13.2794Z" fill="#FB1F43"/>
<path d="M22.4889 9.49258C21.3937 8.39265 19.6158 8.39265 18.5179 9.49258L18.1612 9.85083L17.8045 9.49258C16.7093 8.39265 14.9314 8.39265 13.8335 9.49258C12.7383 10.5925 12.7355 12.3726 13.8279 13.4753L18.164 17.8526L22.4945 13.4781C23.5869 12.3726 23.5841 10.5925 22.4889 9.49258Z" fill="white"/>
<path d="M35.1153 9.49258C34.0202 8.39265 32.2423 8.39265 31.1443 9.49258L30.7876 9.85083L30.4309 9.49258C29.3357 8.39265 27.5578 8.39265 26.4599 9.49258C25.3647 10.5925 25.3619 12.3726 26.4543 13.4753L30.7904 17.8526L35.1209 13.4781C36.2133 12.3726 36.2105 10.5925 35.1153 9.49258Z" fill="white"/>
</svg>
