<svg width="46" height="33" viewBox="0 0 46 33" fill="none" xmlns="http://www.w3.org/2000/svg">
<path d="M6.91419 32.5L0.38501 21.9093L13.3654 21.8673L6.91419 32.5Z" fill="#B4163C"/>
<path d="M45.5487 11.2794L39.0975 0.646683H0.38501L6.83617 11.2794L0.38501 21.9121H39.2062L45.5487 11.2794Z" fill="#FB1F43"/>
<path d="M22.4889 7.49258C21.3937 6.39265 19.6158 6.39265 18.5179 7.49258L18.1612 7.85083L17.8045 7.49258C16.7093 6.39265 14.9314 6.39265 13.8335 7.49258C12.7383 8.59252 12.7355 10.3726 13.8279 11.4753L18.164 15.8526L22.4945 11.4781C23.5869 10.3726 23.5841 8.59252 22.4889 7.49258Z" fill="white"/>
<path d="M35.1153 7.49258C34.0202 6.39265 32.2423 6.39265 31.1443 7.49258L30.7876 7.85083L30.4309 7.49258C29.3357 6.39265 27.5578 6.39265 26.4599 7.49258C25.3647 8.59252 25.3619 10.3726 26.4543 11.4753L30.7904 15.8526L35.1209 11.4781C36.2133 10.3726 36.2105 8.59252 35.1153 7.49258Z" fill="white"/>
</svg>
